<?xml version="1.0" encoding="UTF-8" standalone="no"?><svg xmlns="http://www.w3.org/2000/svg" xmlns:xlink="http://www.w3.org/1999/xlink" contentStyleType="text/css" height="430px" preserveAspectRatio="none" style="width:511px;height:430px;background:#FFFFFF;" version="1.1" viewBox="0 0 511 430" width="511px" zoomAndPan="magnify"><defs/><g><!--MD5=[5aff10ae0a10f22715fe11e1669f6f70]
class Reservoir--><g id="elem_Reservoir"><rect codeLine="2" fill="#F1F1F1" height="80.5938" id="Reservoir" rx="2.5" ry="2.5" style="stroke:#181818;stroke-width:0.5;" width="125" x="7" y="269"/><ellipse cx="34.6" cy="285" fill="#ADD1B2" rx="11" ry="11" style="stroke:#181818;stroke-width:1.0;"/><path d="M37.5688,290.6406 Q36.9906,290.9375 36.35,291.0781 Q35.7094,291.2344 35.0063,291.2344 Q32.5063,291.2344 31.1781,289.5938 Q29.8656,287.9375 29.8656,284.8125 Q29.8656,281.6875 31.1781,280.0313 Q32.5063,278.375 35.0063,278.375 Q35.7094,278.375 36.35,278.5313 Q37.0063,278.6875 37.5688,278.9844 L37.5688,281.7031 Q36.9438,281.125 36.35,280.8594 Q35.7563,280.5781 35.1313,280.5781 Q33.7875,280.5781 33.1,281.6563 Q32.4125,282.7188 32.4125,284.8125 Q32.4125,286.9063 33.1,287.9844 Q33.7875,289.0469 35.1313,289.0469 Q35.7563,289.0469 36.35,288.7813 Q36.9438,288.5 37.5688,287.9219 L37.5688,290.6406 Z " fill="#000000"/><text fill="#000000" font-family="sans-serif" font-size="14" lengthAdjust="spacing" textLength="65" x="51.4" y="289.8467">Reservoir</text><line style="stroke:#181818;stroke-width:0.5;" x1="8" x2="131" y1="301" y2="301"/><ellipse cx="18" cy="314.6484" fill="none" rx="3" ry="3" style="stroke:#038048;stroke-width:1.0;"/><text fill="#000000" font-family="sans-serif" font-size="14" lengthAdjust="spacing" textLength="76" x="27" y="317.9951">int position</text><ellipse cx="18" cy="330.9453" fill="none" rx="3" ry="3" style="stroke:#038048;stroke-width:1.0;"/><text fill="#000000" font-family="sans-serif" font-size="14" lengthAdjust="spacing" textLength="99" x="27" y="334.292">str description</text><line style="stroke:#181818;stroke-width:0.5;" x1="8" x2="131" y1="341.5938" y2="341.5938"/></g><!--MD5=[31804d4e6380ccc16f42ec4dfa32e0a8]
class TargetPlate--><g id="elem_TargetPlate"><rect codeLine="7" fill="#F1F1F1" height="162.0781" id="TargetPlate" rx="2.5" ry="2.5" style="stroke:#181818;stroke-width:0.5;" width="159" x="167" y="228.5"/><ellipse cx="203.6" cy="244.5" fill="#ADD1B2" rx="11" ry="11" style="stroke:#181818;stroke-width:1.0;"/><path d="M206.5688,250.1406 Q205.9906,250.4375 205.35,250.5781 Q204.7094,250.7344 204.0063,250.7344 Q201.5063,250.7344 200.1781,249.0938 Q198.8656,247.4375 198.8656,244.3125 Q198.8656,241.1875 200.1781,239.5313 Q201.5063,237.875 204.0063,237.875 Q204.7094,237.875 205.35,238.0313 Q206.0063,238.1875 206.5688,238.4844 L206.5688,241.2031 Q205.9438,240.625 205.35,240.3594 Q204.7563,240.0781 204.1313,240.0781 Q202.7875,240.0781 202.1,241.1563 Q201.4125,242.2188 201.4125,244.3125 Q201.4125,246.4063 202.1,247.4844 Q202.7875,248.5469 204.1313,248.5469 Q204.7563,248.5469 205.35,248.2813 Q205.9438,248 206.5688,247.4219 L206.5688,250.1406 Z " fill="#000000"/><text fill="#000000" font-family="sans-serif" font-size="14" lengthAdjust="spacing" textLength="79" x="222.4" y="249.3467">TargetPlate</text><line style="stroke:#181818;stroke-width:0.5;" x1="168" x2="325" y1="260.5" y2="260.5"/><ellipse cx="178" cy="274.1484" fill="none" rx="3" ry="3" style="stroke:#038048;stroke-width:1.0;"/><text fill="#000000" font-family="sans-serif" font-size="14" lengthAdjust="spacing" textLength="76" x="187" y="277.4951">int position</text><ellipse cx="178" cy="290.4453" fill="none" rx="3" ry="3" style="stroke:#038048;stroke-width:1.0;"/><text fill="#000000" font-family="sans-serif" font-size="14" lengthAdjust="spacing" textLength="92" x="187" y="293.792">int num_rows</text><ellipse cx="178" cy="306.7422" fill="none" rx="3" ry="3" style="stroke:#038048;stroke-width:1.0;"/><text fill="#000000" font-family="sans-serif" font-size="14" lengthAdjust="spacing" textLength="118" x="187" y="310.0889">int num_columns</text><ellipse cx="178" cy="323.0391" fill="none" rx="3" ry="3" style="stroke:#038048;stroke-width:1.0;"/><text fill="#000000" font-family="sans-serif" font-size="14" lengthAdjust="spacing" textLength="116" x="187" y="326.3857">float well_volume</text><ellipse cx="178" cy="339.3359" fill="none" rx="3" ry="3" style="stroke:#038048;stroke-width:1.0;"/><text fill="#000000" font-family="sans-serif" font-size="14" lengthAdjust="spacing" textLength="84" x="187" y="342.6826">dict fill_state</text><line style="stroke:#181818;stroke-width:0.5;" x1="168" x2="325" y1="349.9844" y2="349.9844"/><ellipse cx="178" cy="363.6328" fill="#84BE84" rx="3" ry="3" style="stroke:#038048;stroke-width:1.0;"/><text fill="#000000" font-family="sans-serif" font-size="14" lengthAdjust="spacing" textLength="90" x="187" y="366.9795">add_to_well()</text><ellipse cx="178" cy="379.9297" fill="#84BE84" rx="3" ry="3" style="stroke:#038048;stroke-width:1.0;"/><text fill="#000000" font-family="sans-serif" font-size="14" lengthAdjust="spacing" textLength="133" x="187" y="383.2764">remove_from_well()</text></g><!--MD5=[f804a777e23cf1dca4b89a494d8805ad]
class HandlingArm--><g id="elem_HandlingArm"><rect codeLine="17" fill="#F1F1F1" height="227.2656" id="HandlingArm" rx="2.5" ry="2.5" style="stroke:#181818;stroke-width:0.5;" width="143" x="361" y="196"/><ellipse cx="386.8" cy="212" fill="#ADD1B2" rx="11" ry="11" style="stroke:#181818;stroke-width:1.0;"/><path d="M389.7688,217.6406 Q389.1906,217.9375 388.55,218.0781 Q387.9094,218.2344 387.2063,218.2344 Q384.7063,218.2344 383.3781,216.5938 Q382.0656,214.9375 382.0656,211.8125 Q382.0656,208.6875 383.3781,207.0313 Q384.7063,205.375 387.2063,205.375 Q387.9094,205.375 388.55,205.5313 Q389.2063,205.6875 389.7688,205.9844 L389.7688,208.7031 Q389.1438,208.125 388.55,207.8594 Q387.9563,207.5781 387.3313,207.5781 Q385.9875,207.5781 385.3,208.6563 Q384.6125,209.7188 384.6125,211.8125 Q384.6125,213.9063 385.3,214.9844 Q385.9875,216.0469 387.3313,216.0469 Q387.9563,216.0469 388.55,215.7813 Q389.1438,215.5 389.7688,214.9219 L389.7688,217.6406 Z " fill="#000000"/><text fill="#000000" font-family="sans-serif" font-size="14" lengthAdjust="spacing" textLength="87" x="403.2" y="216.8467">HandlingArm</text><line style="stroke:#181818;stroke-width:0.5;" x1="362" x2="503" y1="228" y2="228"/><ellipse cx="372" cy="241.6484" fill="none" rx="3" ry="3" style="stroke:#038048;stroke-width:1.0;"/><text fill="#000000" font-family="sans-serif" font-size="14" lengthAdjust="spacing" textLength="76" x="381" y="244.9951">int position</text><ellipse cx="372" cy="257.9453" fill="none" rx="3" ry="3" style="stroke:#038048;stroke-width:1.0;"/><text fill="#000000" font-family="sans-serif" font-size="14" lengthAdjust="spacing" textLength="99" x="381" y="261.292">bool is_loaded</text><ellipse cx="372" cy="274.2422" fill="none" rx="3" ry="3" style="stroke:#038048;stroke-width:1.0;"/><text fill="#000000" font-family="sans-serif" font-size="14" lengthAdjust="spacing" textLength="89" x="381" y="277.5889">bool is_clean</text><ellipse cx="372" cy="290.5391" fill="none" rx="3" ry="3" style="stroke:#038048;stroke-width:1.0;"/><text fill="#000000" font-family="sans-serif" font-size="14" lengthAdjust="spacing" textLength="107" x="381" y="293.8857">bool is_lowered</text><line style="stroke:#181818;stroke-width:0.5;" x1="362" x2="503" y1="301.1875" y2="301.1875"/><ellipse cx="372" cy="314.8359" fill="#84BE84" rx="3" ry="3" style="stroke:#038048;stroke-width:1.0;"/><text fill="#000000" font-family="sans-serif" font-size="14" lengthAdjust="spacing" textLength="71" x="381" y="318.1826">load_tips()</text><ellipse cx="372" cy="331.1328" fill="#84BE84" rx="3" ry="3" style="stroke:#038048;stroke-width:1.0;"/><text fill="#000000" font-family="sans-serif" font-size="14" lengthAdjust="spacing" textLength="76" x="381" y="334.4795">eject_tips()</text><ellipse cx="372" cy="347.4297" fill="#84BE84" rx="3" ry="3" style="stroke:#038048;stroke-width:1.0;"/><text fill="#000000" font-family="sans-serif" font-size="14" lengthAdjust="spacing" textLength="48" x="381" y="350.7764">move()</text><ellipse cx="372" cy="363.7266" fill="#84BE84" rx="3" ry="3" style="stroke:#038048;stroke-width:1.0;"/><text fill="#000000" font-family="sans-serif" font-size="14" lengthAdjust="spacing" textLength="47" x="381" y="367.0732">lower()</text><ellipse cx="372" cy="380.0234" fill="#84BE84" rx="3" ry="3" style="stroke:#038048;stroke-width:1.0;"/><text fill="#000000" font-family="sans-serif" font-size="14" lengthAdjust="spacing" textLength="43" x="381" y="383.3701">raise()</text><ellipse cx="372" cy="396.3203" fill="#84BE84" rx="3" ry="3" style="stroke:#038048;stroke-width:1.0;"/><text fill="#000000" font-family="sans-serif" font-size="14" lengthAdjust="spacing" textLength="86" x="381" y="399.667">draw_liquid()</text><ellipse cx="372" cy="412.6172" fill="#84BE84" rx="3" ry="3" style="stroke:#038048;stroke-width:1.0;"/><text fill="#000000" font-family="sans-serif" font-size="14" lengthAdjust="spacing" textLength="117" x="381" y="415.9639">dispense_liquid()</text></g><!--MD5=[142f6bc7cd94aa0ddbeb6d906eef249d]
class LiquidHandlingApplication--><g id="elem_LiquidHandlingApplication"><rect codeLine="31" fill="#F1F1F1" height="129.4844" id="LiquidHandlingApplication" rx="2.5" ry="2.5" style="stroke:#181818;stroke-width:0.5;" width="207" x="143" y="7"/><ellipse cx="158" cy="23" fill="#ADD1B2" rx="11" ry="11" style="stroke:#181818;stroke-width:1.0;"/><path d="M160.9688,28.6406 Q160.3906,28.9375 159.75,29.0781 Q159.1094,29.2344 158.4063,29.2344 Q155.9063,29.2344 154.5781,27.5938 Q153.2656,25.9375 153.2656,22.8125 Q153.2656,19.6875 154.5781,18.0313 Q155.9063,16.375 158.4063,16.375 Q159.1094,16.375 159.75,16.5313 Q160.4063,16.6875 160.9688,16.9844 L160.9688,19.7031 Q160.3438,19.125 159.75,18.8594 Q159.1563,18.5781 158.5313,18.5781 Q157.1875,18.5781 156.5,19.6563 Q155.8125,20.7188 155.8125,22.8125 Q155.8125,24.9063 156.5,25.9844 Q157.1875,27.0469 158.5313,27.0469 Q159.1563,27.0469 159.75,26.7813 Q160.3438,26.5 160.9688,25.9219 L160.9688,28.6406 Z " fill="#000000"/><text fill="#000000" font-family="sans-serif" font-size="14" lengthAdjust="spacing" textLength="175" x="172" y="27.8467">LiquidHandlingApplication</text><line style="stroke:#181818;stroke-width:0.5;" x1="144" x2="349" y1="39" y2="39"/><line style="stroke:#181818;stroke-width:0.5;" x1="144" x2="349" y1="47" y2="47"/><ellipse cx="154" cy="60.6484" fill="#84BE84" rx="3" ry="3" style="stroke:#038048;stroke-width:1.0;"/><text fill="#000000" font-family="sans-serif" font-size="14" lengthAdjust="spacing" textLength="103" x="163" y="63.9951">add_reservoir()</text><ellipse cx="154" cy="76.9453" fill="#84BE84" rx="3" ry="3" style="stroke:#038048;stroke-width:1.0;"/><text fill="#000000" font-family="sans-serif" font-size="14" lengthAdjust="spacing" textLength="129" x="163" y="80.292">remove_reservoir()</text><ellipse cx="154" cy="93.2422" fill="#84BE84" rx="3" ry="3" style="stroke:#038048;stroke-width:1.0;"/><text fill="#000000" font-family="sans-serif" font-size="14" lengthAdjust="spacing" textLength="125" x="163" y="96.5889">add_target_plate()</text><ellipse cx="154" cy="109.5391" fill="#84BE84" rx="3" ry="3" style="stroke:#038048;stroke-width:1.0;"/><text fill="#000000" font-family="sans-serif" font-size="14" lengthAdjust="spacing" textLength="151" x="163" y="112.8857">remove_target_plate()</text><ellipse cx="154" cy="125.8359" fill="#84BE84" rx="3" ry="3" style="stroke:#038048;stroke-width:1.0;"/><text fill="#000000" font-family="sans-serif" font-size="14" lengthAdjust="spacing" textLength="106" x="163" y="129.1826">transfer_liquid()</text></g><!--MD5=[d0e6e27c30877f01ddd1c6a6632ce863]
link LiquidHandlingApplication to Reservoir--><g id="link_LiquidHandlingApplication_Reservoir"><path codeLine="39" d="M195.0606,136.3095 C180.1716,155.3929 164.0228,176.4096 149.5,196 C132.8775,218.4228 114.9268,243.7796 100.2495,264.8298 " fill="none" id="LiquidHandlingApplication-to-Reservoir" style="stroke:#181818;stroke-width:1.0;stroke-dasharray:7.0,7.0;"/><polygon fill="#181818" points="97.359,268.9803,105.7848,263.8807,100.2164,264.8772,99.2198,259.3088,97.359,268.9803" style="stroke:#181818;stroke-width:1.0;"/></g><!--MD5=[fad42ada9cc6ce5b600e60a77f9512e7]
link LiquidHandlingApplication to TargetPlate--><g id="link_LiquidHandlingApplication_TargetPlate"><path codeLine="40" d="M246.5,136.2202 C246.5,162.9145 246.5,194.2466 246.5,222.8735 " fill="none" id="LiquidHandlingApplication-to-TargetPlate" style="stroke:#181818;stroke-width:1.0;stroke-dasharray:7.0,7.0;"/><polygon fill="#181818" points="246.5,228.1855,250.5,219.1855,246.5,223.1855,242.5,219.1855,246.5,228.1855" style="stroke:#181818;stroke-width:1.0;"/></g><!--MD5=[e5ff2de704a8d91343bd0d540596d961]
link LiquidHandlingApplication to HandlingArm--><g id="link_LiquidHandlingApplication_HandlingArm"><path codeLine="41" d="M297.0796,136.2202 C315.7661,160.1308 337.3606,187.7625 357.739,213.8381 " fill="none" id="LiquidHandlingApplication-to-HandlingArm" style="stroke:#181818;stroke-width:1.0;stroke-dasharray:7.0,7.0;"/><polygon fill="#181818" points="360.9985,218.0088,358.6084,208.4544,357.9197,214.0691,352.3049,213.3805,360.9985,218.0088" style="stroke:#181818;stroke-width:1.0;"/></g><!--MD5=[f63f1d4e6b0470a464efd581afd80608]
@startuml

class Reservoir {
    +int position
    +str description
}

class TargetPlate {
    +int position
    +int num_rows
    +int num_columns
    +float well_volume
    +dict fill_state
    +add_to_well()
    +remove_from_well()
}

class HandlingArm {
    +int position
    +bool is_loaded
    +bool is_clean
    +bool is_lowered
    +load_tips()
    +eject_tips()
    +move()
    +lower()
    +raise()
    +draw_liquid()
    +dispense_liquid()
}

class LiquidHandlingApplication {
    +add_reservoir()
    +remove_reservoir()
    +add_target_plate()
    +remove_target_plate()
    +transfer_liquid()
}
    
LiquidHandlingApplication ..> Reservoir
LiquidHandlingApplication ..> TargetPlate
LiquidHandlingApplication ..> HandlingArm

@enduml

PlantUML version 1.2022.7(Mon Aug 22 19:01:30 CEST 2022)
(GPL source distribution)
Java Runtime: OpenJDK Runtime Environment
JVM: OpenJDK 64-Bit Server VM
Default Encoding: UTF-8
Language: en
Country: US
--></g></svg>